<svg role="img" viewBox="0 0 24 24" xmlns="http://www.w3.org/2000/svg"><path d="M12 0C5.373 0 0 5.373 0 12s5.373 12 12 12 12-5.373 12-12S18.627 0 12 0zm5.17 16.15c-.47.224-1.034.336-1.692.336-.47 0-.84-.093-1.112-.28-.272-.187-.408-.467-.408-.84 0-.56.336-1.12 1.008-1.68.672-.56 1.568-1.072 2.688-1.536.094-.038.168-.065.224-.084V10.5c0-.392-.042-.702-.126-.928-.084-.227-.21-.386-.378-.478a1.273 1.273 0 0 0-.63-.154c-.336 0-.625.096-.868.288-.243.192-.364.436-.364.732 0 .168.028.318.084.448.056.131.126.267.21.406l-.084.098c-.35.196-.7.294-1.05.294-.336 0-.595-.082-.778-.246-.182-.164-.274-.396-.274-.696 0-.392.14-.765.42-1.12.28-.355.672-.649 1.176-.882A3.928 3.928 0 0 1 16.506 8c.616 0 1.094.14 1.434.42.34.28.51.658.51 1.134 0 .392-.098.77-.294 1.134a3.307 3.307 0 0 1-.826.966c.616.196 1.078.492 1.386.886.308.394.462.862.462 1.404 0 .476-.126.894-.378 1.254-.252.36-.602.642-1.05.846zM9.474 13.218c.14-.182.294-.308.462-.378.168-.07.34-.106.518-.106.28 0 .498.094.654.28.156.187.234.438.234.752 0 .35-.07.672-.21.966-.14.294-.33.546-.57.756-.24.21-.516.374-.828.49a2.88 2.88 0 0 1-.996.174c-.658 0-1.17-.186-1.536-.558-.366-.372-.548-.886-.548-1.544 0-.672.154-1.284.462-1.836.308-.552.728-.988 1.26-1.308.532-.32 1.118-.48 1.758-.48.476 0 .845.082 1.106.246.262.164.392.382.392.654 0 .168-.056.312-.168.434-.112.121-.262.182-.448.182-.14 0-.262-.037-.364-.112a.528.528 0 0 1-.21-.28 1.224 1.224 0 0 0-.378-.07c-.392 0-.737.148-1.034.444-.298.296-.523.682-.676 1.156a4.28 4.28 0 0 0-.23 1.372c0 .336.07.586.21.75.14.164.34.246.598.246.224 0 .424-.05.6-.154.176-.103.332-.25.468-.442z" fill="#000000"/></svg>
